<?xml version="1.0" encoding="UTF-8"?>
<svg xmlns="http://www.w3.org/2000/svg" viewBox="0 0 1095 1095" width="1095" height="1095">
<path d="M624.5 517.09C632.21 512.04 639.06 505.48 646.83 500.36C661.7 490.57 679.27 483.33 696.56 479.18C780.59 458.98 866.71 502.98 902.86 580.64C923.42 624.82 919.32 669.23 919.48 716.5C919.55 739.5 919.42 762.5 919.55 785.5C919.64 802.73 921.05 819.58 911.05 834.57C890.59 865.24 843.55 853.27 836.3 818.39C833.28 803.85 835.18 786.42 835.18 771.5C835.17 745.83 835.13 720.17 835.16 694.5C835.18 679.32 836.1 663.78 834.59 648.66C831.41 616.79 817.46 588.29 792.71 567.82C785.61 561.94 777.62 557.14 769.27 553.25C756.34 547.21 742.7 543.52 728.5 542.03C712.96 540.41 697.38 542.5 682.44 546.82C672.64 549.65 663.52 554.02 654.85 559.38C630.21 574.6 612.41 598.08 606.1 626.52C601.61 646.81 603.58 668.87 603.81 689.5C604.09 713.17 604.08 736.83 604.29 760.5C604.4 772.17 604.31 783.83 604.41 795.5C604.48 804.51 605.04 813.72 601.78 822.32C590.68 851.59 550.58 854.42 535.28 827.24C529.36 816.71 530.61 804.07 530.8 792.5C531.1 774.39 530.36 756.08 531.5 738C526.62 742.1 523.41 749.73 519.45 754.93C512.78 763.7 504.97 771.93 496.9 779.42C459.35 814.29 406.96 834.58 356.46 839.66C326.64 842.67 297.14 840.38 267.79 834.57C238.49 828.77 209.52 819.52 179.5 818.07C141.33 816.23 89.22 832.05 56.66 852.12C42.39 860.92 30.08 871.73 17.5 882.69C17.77 878.21 20.74 873.3 22.82 869.32C26.78 861.71 30.78 854.09 35.39 846.86C60.3 807.81 99.2 778.22 144.29 766.69C171.91 759.63 199.96 757.68 228.32 761.4C268.68 766.68 303.65 780.46 345.5 779.02C412.13 776.73 492.09 731.76 499.81 659.5C506.27 599.03 462.31 540.14 402.47 529.17C366.03 522.48 329.26 533.33 300.24 555.73C247.91 596.12 232.05 678.56 282.14 727.37C295.63 740.5 313.5 749.98 331.68 754.7C336.23 755.88 340.86 757.14 345.51 757.89C350.2 758.64 355.01 758.86 359.5 760.48C348.74 762.46 337.42 762.71 326.5 762.85C278.52 763.43 228.01 750.07 203.6 704.88C199.35 697.02 196.05 689.29 193.75 680.63C190.63 668.85 189.29 656.69 189.77 644.5C190.37 628.98 193.76 613.27 199.35 598.78C226.29 528.91 297.18 478.81 371.5 473.1C388.77 471.77 405.45 473.35 422.44 476.29C456.64 482.21 488.71 502.39 512.01 527.49C517.66 533.58 522.54 540.43 527.24 547.27C529.59 550.7 531.41 554.79 534.48 557.5C535.07 550.9 534.64 544.12 534.65 537.5C534.66 524.5 534.64 511.5 534.64 498.5C534.65 459.5 534.52 420.5 534.7 381.5C534.74 372.39 533.79 362.61 535.3 353.61C538.34 335.38 553.02 319.13 571.5 315.95C598.12 311.38 621.57 331.06 623.72 357.51C624.72 369.71 623.81 382.26 623.86 394.5C623.96 419.5 624.06 444.51 623.9 469.5C623.84 479.17 623.93 488.83 623.92 498.5C623.92 504.63 623.42 511.08 624.5 517.09Z" fill="#020202" fill-rule="evenodd" stroke="#020202" stroke-width="0.25" stroke-linejoin="round"/>
<path d="M699.74 219.41C711.03 217.73 722.8 223.02 728.37 233.15C732.77 241.14 734.4 256.97 736.33 266.32C740.03 284.36 743.65 302.4 747.16 320.47C748.8 328.87 751.9 337.89 751.09 346.5C750.01 358.07 740.78 367.73 729.48 369.93C718.33 372.1 705.84 367.59 699.91 357.61C694.85 349.08 692.82 330.72 690.77 320.55C687.41 303.84 683.62 287.16 679.87 270.53C677.95 262.02 674.8 252.25 675.93 243.5C677.52 231.13 687.47 221.24 699.74 219.41ZM906.78 260.42C925.69 257.05 941.18 274.08 937.83 292.45C936.08 302.04 927.72 311 922.12 318.67C912.4 332.01 903.23 345.76 893.65 359.19C888.58 366.3 884.01 375.14 876.89 380.42C869.29 386.05 858.15 386.83 849.68 382.8C838.27 377.37 832.9 365.12 835.47 352.87C837.38 343.71 845.23 335.5 850.45 327.94C860.94 312.75 871.22 297.42 881.77 282.28C888.45 272.69 894.24 262.65 906.78 260.42ZM1031.73 370.37C1050.73 367.07 1066.73 387.92 1056.64 405.16C1051.29 414.3 1039.69 419.09 1031.11 424.6C1016.5 433.99 1001.98 443.62 987.11 452.6C980.21 456.77 973.42 462.38 965.95 465.46C957.3 469.02 946.48 467.47 939.81 460.69C931.96 452.71 931.01 439.4 938.03 430.55C943.22 424.01 952.05 419.93 958.96 415.46C974.11 405.68 989.39 395.96 1004.31 385.84C1011.86 380.72 1022.75 371.93 1031.73 370.37ZM921.5 637.51C921.42 633.1 923.16 628.88 923.93 624.5C925.12 617.62 925.63 610.48 925.62 603.5C925.61 575.14 917.17 546.4 904.28 521.25C869 452.47 796.29 409.13 718.26 422.6C705.65 424.78 693.38 428.02 681.6 433.13C662.98 441.19 647.11 453.02 632.5 466.91C632.51 463.41 634.75 460.07 636.46 456.96C640.74 449.19 645.52 441.53 651.26 434.75C675.49 406.17 707.55 386.22 744.46 378.8C774.1 372.85 804.45 376.77 832.65 386.81C891.45 407.74 934.23 458.07 948.09 518.48C955.08 548.93 951.41 581.66 938.56 610.09C934.65 618.75 928.51 631.1 921.5 637.51ZM377.5 719.9C370.51 714.66 365.12 702.89 359.89 695.66C350.29 682.38 341.74 668.43 332.84 654.68C324.69 642.07 317.21 628.83 316.16 613.5C313.68 577.35 347.56 547.12 382.5 547.96C418.28 548.82 446.84 581.75 440.75 617.45C437.19 638.31 420.34 658.99 408.69 676.21C402.65 685.14 396.48 693.95 390.22 702.71C386.12 708.45 382.34 714.78 377.5 719.9ZM379.5 582.51C369.31 582.45 358.79 588.48 354.37 597.83C346.82 613.8 355.94 634.21 374.5 635.89C403.65 638.52 418.21 596.59 389.98 584.52C386.7 583.12 383.05 582.53 379.5 582.51ZM347.99 687.5C339.17 692.64 320.74 693.6 316.6 705.13C312.16 717.46 335.92 722.92 343.83 724.58C365.31 729.09 388.2 728.41 409.67 724.34C417.65 722.83 429.02 720.55 434.77 714.26C446.11 701.89 421.08 693.9 413 691.5C410.35 690.71 407.46 690.33 405.41 688.5C410.13 686.95 415.85 687.98 420.76 688.56C432.8 689.98 444.52 692.43 455.27 698.24C463.04 702.44 468.66 710.6 463.91 719.39C457.21 731.8 436.15 737.62 423.47 740.87C395.93 747.94 365.33 748.23 337.45 743.26C323.55 740.78 308.34 737.27 296.72 728.77C285.3 720.41 285.01 708.57 296.63 700.09C306.29 693.04 318.68 689.58 330.31 687.63C335.91 686.69 342.57 685.72 347.99 687.5Z" fill="#fb0303" fill-rule="evenodd" stroke="#fb0303" stroke-width="0.25" stroke-linejoin="round"/>
</svg>